<?xml version="1.0" encoding="UTF-8" standalone="no"?>
<!-- Created with Inkscape (http://www.inkscape.org/) -->

<svg
   xmlns:dc="http://purl.org/dc/elements/1.1/"
   xmlns:cc="http://creativecommons.org/ns#"
   xmlns:rdf="http://www.w3.org/1999/02/22-rdf-syntax-ns#"
   xmlns:svg="http://www.w3.org/2000/svg"
   xmlns="http://www.w3.org/2000/svg"
   xmlns:sodipodi="http://sodipodi.sourceforge.net/DTD/sodipodi-0.dtd"
   xmlns:inkscape="http://www.inkscape.org/namespaces/inkscape"
   version="1.1"
   id="svg2"
   width="64"
   height="64"
   viewBox="0 0 64 64"
   sodipodi:docname="williamdes.svg"
   inkscape:version="0.92.5 (2060ec1f9f, 2020-04-08)"
   inkscape:export-filename="/mnt/Dev/@williamdes/williamdes.eu/williamdes.eu/static/logo/williamdes_x1024.png"
   inkscape:export-xdpi="1536"
   inkscape:export-ydpi="1536">
  <metadata
     id="metadata8">
    <rdf:RDF>
      <cc:Work
         rdf:about="">
        <dc:format>image/svg+xml</dc:format>
        <dc:type
           rdf:resource="http://purl.org/dc/dcmitype/StillImage" />
        <dc:title></dc:title>
      </cc:Work>
    </rdf:RDF>
  </metadata>
  <defs
     id="defs6" />
  <sodipodi:namedview
     pagecolor="#ffffff"
     bordercolor="#666666"
     borderopacity="1"
     objecttolerance="10"
     gridtolerance="10"
     guidetolerance="10"
     inkscape:pageopacity="1"
     inkscape:pageshadow="2"
     inkscape:window-width="1920"
     inkscape:window-height="1006"
     id="namedview4"
     showgrid="false"
     inkscape:zoom="4"
     inkscape:cx="44.184902"
     inkscape:cy="-12.111112"
     inkscape:window-x="0"
     inkscape:window-y="40"
     inkscape:window-maximized="1"
     inkscape:current-layer="svg2" />
  <g
     id="g1049"
     transform="translate(0.00212889,-0.00390625)">
    <path
       style="fill:#f3c089"
       d="M 0,32 C 0,21.333333 0,10.666667 0,0 21.333333,0 42.666667,0 64,0 64,21.333333 64,42.666667 64,64 42.666667,64 21.333333,64 0,64 0,53.333333 0,42.666667 0,32 Z m 16,8 c 0,-2.666667 0,-5.333333 0,-8 -2.666667,0 -5.333333,0 -8,0 0,5.333333 0,10.666667 0,16 2.666667,0 5.333333,0 8,0 0,-2.666667 0,-5.333333 0,-8 z m 40,0 c 0,-2.666667 0,-5.333333 0,-8 -2.666667,0 -5.333333,0 -8,0 0,5.333333 0,10.666667 0,16 2.666667,0 5.333333,0 8,0 0,-2.666667 0,-5.333333 0,-8 z"
       id="path1055"
       inkscape:connector-curvature="0" />
    <path
       style="fill:#00538b"
       d="M 0,24 C 0,16 0,8 0,0 c 21.333333,0 42.666667,0 64,0 0,16 0,32 0,48 -2.666667,0 -5.333333,0 -8,0 0,-5.333333 0,-10.666667 0,-16 -2.666667,0 -5.333333,0 -8,0 0,5.333333 0,10.666667 0,16 -2.666667,0 -5.333333,0 -8,0 0,-5.333333 0,-10.666667 0,-16 -5.333333,0 -10.666667,0 -16,0 0,5.333333 0,10.666667 0,16 -2.666667,0 -5.333333,0 -8,0 0,-5.333333 0,-10.666667 0,-16 -2.666667,0 -5.333333,0 -8,0 0,5.333333 0,10.666667 0,16 -2.6666667,0 -5.3333333,0 -8,0 0,-8 0,-16 0,-24 z"
       id="path1053"
       inkscape:connector-curvature="0" />
    <path
       style="fill:#000000"
       d="M 0,24 C 0,16 0,8 0,0 c 21.333333,0 42.666667,0 64,0 0,16 0,32 0,48 -2.666667,0 -5.333333,0 -8,0 0,-5.333333 0,-10.666667 0,-16 -16,0 -32,0 -48,0 0,5.333333 0,10.666667 0,16 -2.6666667,0 -5.3333333,0 -8,0 0,-8 0,-16 0,-24 z"
       id="path1051"
       inkscape:connector-curvature="0" />
  </g>
</svg>
