<?xml version="1.0" encoding="UTF-8" standalone="no"?>
<svg
   xmlns:dc="http://purl.org/dc/elements/1.1/"
   xmlns:cc="http://creativecommons.org/ns#"
   xmlns:rdf="http://www.w3.org/1999/02/22-rdf-syntax-ns#"
   xmlns:svg="http://www.w3.org/2000/svg"
   xmlns="http://www.w3.org/2000/svg"
   viewBox="0 0 64 64"
   height="64"
   width="64"
   id="svg2"
   version="1.1">
  <metadata
     id="metadata8">
    <rdf:RDF>
      <cc:Work
         rdf:about="">
        <dc:format>image/svg+xml</dc:format>
        <dc:type
           rdf:resource="http://purl.org/dc/dcmitype/StillImage" />
        <dc:title></dc:title>
      </cc:Work>
    </rdf:RDF>
  </metadata>
  <defs
     id="defs6" />
  <g
     transform="translate(0.00212889,-0.00390625)"
     id="g1049">
    <path
       id="path1055"
       d="M 0,32 C 0,21.333333 0,10.666667 0,0 21.333333,0 42.666667,0 64,0 64,21.333333 64,42.666667 64,64 42.666667,64 21.333333,64 0,64 0,53.333333 0,42.666667 0,32 Z m 16,8 c 0,-2.666667 0,-5.333333 0,-8 -2.666667,0 -5.333333,0 -8,0 0,5.333333 0,10.666667 0,16 2.666667,0 5.333333,0 8,0 0,-2.666667 0,-5.333333 0,-8 z m 40,0 c 0,-2.666667 0,-5.333333 0,-8 -2.666667,0 -5.333333,0 -8,0 0,5.333333 0,10.666667 0,16 2.666667,0 5.333333,0 8,0 0,-2.666667 0,-5.333333 0,-8 z"
       style="fill:#f3c089" />
    <path
       id="path1053"
       d="M 0,24 C 0,16 0,8 0,0 c 21.333333,0 42.666667,0 64,0 0,16 0,32 0,48 -2.666667,0 -5.333333,0 -8,0 0,-5.333333 0,-10.666667 0,-16 -2.666667,0 -5.333333,0 -8,0 0,5.333333 0,10.666667 0,16 -2.666667,0 -5.333333,0 -8,0 0,-5.333333 0,-10.666667 0,-16 -5.333333,0 -10.666667,0 -16,0 0,5.333333 0,10.666667 0,16 -2.666667,0 -5.333333,0 -8,0 0,-5.333333 0,-10.666667 0,-16 -2.666667,0 -5.333333,0 -8,0 0,5.333333 0,10.666667 0,16 -2.6666667,0 -5.3333333,0 -8,0 0,-8 0,-16 0,-24 z"
       style="fill:#00538b" />
    <path
       id="path1051"
       d="M 0,24 C 0,16 0,8 0,0 c 21.333333,0 42.666667,0 64,0 0,16 0,32 0,48 -2.666667,0 -5.333333,0 -8,0 0,-5.333333 0,-10.666667 0,-16 -16,0 -32,0 -48,0 0,5.333333 0,10.666667 0,16 -2.6666667,0 -5.3333333,0 -8,0 0,-8 0,-16 0,-24 z"
       style="fill:#000000" />
  </g>
</svg>
